
        <svg xmlns="http://www.w3.org/2000/svg" xmlns:xlink="http://www.w3.org/1999/xlink" version="1.1" width="3203.8755850349853" height="570.8516380979581" viewBox="0 0 3203.8755850349853 570.8516380979581">

			<g transform="scale(10.193779251749252) translate(10, 10)">
				<defs id="SvgjsDefs5906"/><g id="SvgjsG5907" featurekey="nameLeftFeature-0" transform="matrix(1.3636360877802123,0,0,1.3636360877802123,-1.1272723272813083,-18.545450013532058)" fill="#000"><path d="M16.56 17.12 l0 -2 l-11.32 0 l0 23.4 l2.32 0 l0 -10.92 l7.04 0 l0 -2.04 l-7.04 0 l0 -8.44 l9 0 z M8.68 40 l-4.6 0 c-0.2 0 -0.32 -0.16 -0.32 -0.36 l0 -25.68 c0 -0.2 0.12 -0.36 0.32 -0.36 l13.6 0 c0.2 0 0.36 0.16 0.36 0.36 l0 4.28 c0 0.2 -0.16 0.36 -0.36 0.36 l-8.64 0 l0 5.44 l6.72 0 c0.2 0 0.32 0.16 0.32 0.36 l0 4.36 c0 0.2 -0.12 0.36 -0.32 0.36 l-6.72 0 l0 10.52 c0 0.2 -0.16 0.36 -0.36 0.36 z M27.439999999999998 25.560000000000002 l0 -8.44 l9 0 l0 -2 l-11.32 0 l0 23.4 l11.32 0 l0 -2 l-9 0 l0 -8.92 l7.04 0 l0 -2.04 l-7.04 0 z M23.96 40 c-0.2 0 -0.32 -0.16 -0.32 -0.36 l0 -25.68 c0 -0.2 0.12 -0.36 0.32 -0.36 l13.6 0 c0.2 0 0.36 0.16 0.36 0.36 l0 4.28 c0 0.2 -0.16 0.36 -0.36 0.36 l-8.64 0 l0 5.44 l6.72 0 c0.2 0 0.32 0.16 0.32 0.36 l0 4.36 c0 0.2 -0.12 0.36 -0.32 0.36 l-6.72 0 l0 5.88 l8.64 0 c0.2 0 0.36 0.16 0.36 0.36 l0 4.28 c0 0.2 -0.16 0.36 -0.36 0.36 l-13.6 0 z M57.400000000000006 38.52 l0 -2.08 l-9 0 l0 -21.32 l-2.24 0 l0 23.4 l11.24 0 z M49.56 13.600000000000001 c0.2 0 0.36 0.16 0.36 0.36 l0 21 l8.64 0 c0.2 0 0.36 0.16 0.36 0.36 l0 4.32 c0 0.2 -0.16 0.36 -0.36 0.36 l-13.56 0 c-0.2 0 -0.32 -0.16 -0.32 -0.36 l0 -25.68 c0 -0.2 0.12 -0.36 0.32 -0.36 l4.56 0 z M77.24000000000001 38.52 l0 -2.08 l-9 0 l0 -21.32 l-2.24 0 l0 23.4 l11.24 0 z M69.4 13.600000000000001 c0.2 0 0.36 0.16 0.36 0.36 l0 21 l8.64 0 c0.2 0 0.36 0.16 0.36 0.36 l0 4.32 c0 0.2 -0.16 0.36 -0.36 0.36 l-13.56 0 c-0.2 0 -0.32 -0.16 -0.32 -0.36 l0 -25.68 c0 -0.2 0.12 -0.36 0.32 -0.36 l4.56 0 z"/></g><g id="SvgjsG5908" featurekey="inlineSymbolFeature-0" transform="matrix(0.31746029183037233,0,0,0.31746029183037233,106.42857148984302,-2.317459282651283)" fill="#000"><g xmlns="http://www.w3.org/2000/svg"><path d="M116.1,53.9c-4.9,0-8.9,3.4-9.9,8H91.4c-0.6-9.1-5.5-17-12.5-21.9l7.6-13c1,0.3,2.1,0.5,3.2,0.5c5.6,0,10.1-4.5,10.1-10.1   c0-5.6-4.5-10.1-10.1-10.1c-5.6,0-10.1,4.5-10.1,10.1c0,3,1.3,5.6,3.3,7.5l-7.6,12.9c-3.9-1.9-8.2-3-12.9-3   c-4.8,0-9.4,1.2-13.4,3.3l-7.6-12.4c2.6-1.8,4.3-4.8,4.3-8.3c0-5.6-4.5-10.1-10.1-10.1c-5.6,0-10.1,4.5-10.1,10.1   c0,5.6,4.5,10.1,10.1,10.1c0.6,0,1.3-0.1,1.9-0.2l8,13c-6.9,5-11.6,13-12.1,22.1l-11.4,0.2c-0.6-5-4.9-8.8-10-8.8   C6.3,53.9,1.8,58.4,1.8,64c0,5.6,4.5,10.1,10.1,10.1c4.5,0,8.4-3,9.7-7.1l11.9-0.2c0.8,9,5.8,16.9,13,21.6l-7.2,12.8   c-1.1-0.4-2.4-0.7-3.7-0.7c-5.6,0-10.1,4.5-10.1,10.1c0,5.6,4.5,10.1,10.1,10.1c5.6,0,10.1-4.5,10.1-10.1c0-2.7-1.1-5.2-2.9-7.1   l7.3-13.1c3.7,1.8,7.9,2.7,12.3,2.7c4.6,0,9-1.1,12.9-3l7.5,12.7c-2.2,1.9-3.6,4.6-3.6,7.7c0,5.6,4.5,10.1,10.1,10.1   s10.1-4.5,10.1-10.1c0-5.6-4.5-10.1-10.1-10.1c-1,0-1.9,0.1-2.8,0.4L78.9,88c7.1-4.9,11.9-12.8,12.5-21.9h14.8c1,4.6,5,8,9.9,8   c5.6,0,10.1-4.5,10.1-10.1C126.2,58.4,121.7,53.9,116.1,53.9z M52.9,55.2c0-0.6,0-1.4,0.1-2.2c0-0.4,0-0.8,0-1.2   c0-0.7,0.1-1.3,0.1-1.4c0.2-1.9,0.8-3.7,2.3-5.1c0.8-0.8,1.8-1.4,2.9-1.8c0.9-0.3,1.8-0.6,2.7-0.7c0.5-0.1,0.9-0.1,1.4-0.1   c2.7,0,5.6,0.7,7.4,2.9c1.5,1.9,2,4.4,2,6.7c0,0.1,0,0.1,0,0.2c0,0,0,1.4,0,1.6c0,0.2,0,0.4,0,0.7c0,0.3-0.1,0.6-0.1,0.8   c0,0.1,0,0.3-0.1,0.4c-0.1,0.7-0.3,1.7-1.2,2.6c-0.1,0.1-0.2,0.1-0.2,0.2l-0.1,0.1c-0.1,0.1-0.2,0.2-0.3,0.3c0,0.1,0,0.2-0.1,0.2   c-0.1,0.2-0.1,0.5-0.2,0.7c-0.2,0.6-0.5,1.1-0.8,1.5c-0.6,1-1.5,1.9-2.4,2.5c-2.6,1.8-5.6,1.8-8.2,0c-0.9-0.6-1.6-1.4-2.2-2.3   c-0.6-0.8-1-1.8-1.3-2.8c-1-0.6-1.6-1.7-1.8-3l0-0.1c0,0,0,0,0-0.1C52.9,55.6,52.9,55.4,52.9,55.2z M77.5,80.8h-0.8   c-0.1,0-0.2,0-0.2,0H48.3c0,0-0.1,0-0.2,0h-0.8c-0.6,0-1.1-0.5-1-1.1c0,0,0,0,0-0.1c0.3-2.4,0.5-7.3,0.8-9.7c0-0.2,0-0.4,0.1-0.5   c0.1-0.4,0.2-0.8,0.3-1.1c0.1-0.2,0.2-0.4,0.4-0.5c0.2-0.1,0.4-0.2,0.7-0.3c0,0,0,0,0,0c0.9-0.3,1.8-0.6,2.7-0.8   c0.8-0.2,1.6-0.5,2.4-0.7c0.6-0.2,1.3-0.4,1.8-0.6c1.3,2.9,3.9,4.9,6.9,5c3.1-0.2,5.7-2.2,6.9-5c0.6,0.2,1.2,0.4,1.8,0.6   c0.8,0.2,1.6,0.4,2.4,0.7c0.9,0.3,1.8,0.5,2.7,0.8c0,0,0,0,0,0c0.2,0.1,0.5,0.2,0.7,0.3c0.2,0.2,0.3,0.3,0.4,0.5   c0.1,0.3,0.2,0.6,0.3,1.1c0,0.2,0,0.3,0.1,0.5c0.3,2.4,0.5,7.3,0.8,9.7c0,0,0,0,0,0.1C78.6,80.3,78.1,80.8,77.5,80.8z"/><path d="M18,48.4c0,0,0.1,0,0.1,0.1c1,0.4,2.1,0,2.7-0.9L28.1,35c0.6-1,0.2-2.4-0.8-3c0,0,0,0-0.1,0c-1-0.6-2.4-0.3-3,0.8   l-7.3,12.6C16.2,46.5,16.7,48,18,48.4z"/><path d="M107.8,78.5C107.8,78.5,107.7,78.5,107.8,78.5c-1.1-0.7-2.5-0.3-3.1,0.7l-8,13.8c-0.6,1-0.2,2.4,0.8,3c0,0,0,0,0.1,0   c1,0.6,2.4,0.3,3-0.8l8-13.8C109.2,80.4,108.8,79.1,107.8,78.5z"/><path d="M97.8,32.1C97.7,32.1,97.7,32.1,97.8,32.1c-1.1,0.6-1.6,2-0.9,3l7.9,13.7c0.6,1.1,1.9,1.4,3,0.8c0,0,0,0,0.1,0   c1-0.6,1.4-1.9,0.8-3l-7.9-13.7C100.1,31.9,98.8,31.5,97.8,32.1z"/><path d="M27.2,96.1C27.2,96,27.2,96,27.2,96.1c1.1-0.6,1.5-2,0.9-3l-7.3-12.6c-0.5-0.9-1.7-1.3-2.7-0.9c0,0-0.1,0-0.1,0.1   c-1.2,0.5-1.8,2-1.1,3.1l7.3,12.6C24.8,96.3,26.1,96.7,27.2,96.1z"/><path d="M70.4,108.3h-16c-1.2,0-2.2,1-2.2,2.2c0,0,0,0,0,0.1c0,1.2,1,2.2,2.2,2.2h16c1.2,0,2.2-1,2.2-2.2c0,0,0,0,0-0.1   C72.6,109.2,71.6,108.3,70.4,108.3z"/><path d="M54.4,19.7h16.5c1.2,0,2.2-1,2.2-2.2c0,0,0,0,0-0.1c0-1.2-1-2.2-2.2-2.2H54.4c-1.2,0-2.2,1-2.2,2.2c0,0,0,0,0,0.1   C52.2,18.8,53.2,19.7,54.4,19.7z"/></g></g><g id="SvgjsG5909" featurekey="nameRightFeature-0" transform="matrix(1.3254786525129598,0,0,1.3254786525129598,143.82879400508241,-17.549334527743707)" fill="#000"><path d="M24.36 38.52 l6.28 -23.4 l-2.2 0 l-5.76 21.28 l-4.8 -21.28 l-2.48 0 l1.56 5.68 l-5 15.32 l-5.52 -21 l-2.2 0.04 l6.2 23.36 l2.52 0 l3.4 -9.36 l1.6 -4.52 l1.24 4.6 l2.48 9.28 l2.68 0 z M32.16 13.600000000000001 c0.24 0 0.4 0.2 0.32 0.44 l-6.88 25.72 c-0.04 0.16 -0.2 0.24 -0.36 0.24 l-4.4 0 c-0.16 0 -0.28 -0.08 -0.36 -0.24 l-2.72 -10.12 l-3.68 10.16 c-0.04 0.12 -0.12 0.2 -0.28 0.2 l-4.24 0 c-0.16 0 -0.28 -0.08 -0.32 -0.24 l-6.84 -25.76 c-0.04 -0.2 0.08 -0.4 0.36 -0.4 l4.6 0 c0.12 0 0.24 0.12 0.28 0.24 l4.44 16.96 l3.32 -10.04 l-1.84 -6.72 c-0.08 -0.24 0.12 -0.44 0.32 -0.44 l4.96 0 c0.16 0 0.24 0.04 0.32 0.24 l3.68 16.32 l4.4 -16.32 c0.04 -0.12 0.16 -0.24 0.32 -0.24 l4.6 0 z M49.72 38.24 c2.24 -1.08 3.48 -3.24 3.48 -6.6 c0 -3.2 -3.4 -5.2 -6.16 -6.44 c-1.04 -0.64 -2.32 -0.88 -3.72 -1.8 c-1.32 -0.84 -2 -1.88 -2 -3.08 s0.68 -2.28 1.92 -2.8 c1 -0.48 2.08 -0.52 2.36 -0.52 c1.32 0 3.12 0.44 4.72 2.56 l1.68 -1.16 c-1.24 -2.4 -3.2 -3.64 -5.84 -3.64 c-3.44 0 -7.44 2 -7.44 6 c0 3.6 3.6 5.6 6.68 6.8 c2.04 0.8 5 2.2 5 4.88 c0 2.36 -1.96 4.12 -4.4 4.12 c-2 0 -3.64 -1.2 -4.76 -2.84 l-1.92 1.6 c1.24 2.48 4.28 3.6 6.88 3.6 c1.36 0 2.56 -0.2 3.52 -0.68 z M47.72 23.8 c3.04 1.44 7 3.72 7 7.84 c0 1.2 -0.2 3.52 -1.52 5.48 c-1.48 2.2 -3.8 3.28 -7 3.28 c-3.4 0 -7.36 -1.64 -8.6 -5.36 c-0.04 -0.12 0 -0.24 0.12 -0.32 l3.68 -3.16 c0.16 -0.12 0.4 -0.12 0.52 0.08 c0.08 0.2 0.24 0.52 0.44 0.92 c0.6 1.24 2.04 2.48 3.64 2.48 c1.24 0 2.92 -0.68 2.92 -2.6 c0 -1.84 -2.52 -2.88 -4.08 -3.48 c-1.8 -0.72 -3.64 -1.64 -5.2 -3 c-1.64 -1.52 -2.44 -3.2 -2.44 -5.2 c0 -5 4.6 -7.52 8.96 -7.52 c3.44 0 6 1.8 7.68 5.36 c0.08 0.16 0 0.36 -0.12 0.44 l-3.56 2.48 c-0.16 0.08 -0.24 0.08 -0.4 -0.12 c-1.36 -1.96 -2.56 -2.88 -4.16 -2.88 c-0.84 0 -2.8 0.32 -2.8 1.8 c0 1.8 3.32 2.72 4.92 3.48 z M76.2 38.52 l0 -23.4 l-2.24 0 l0 10.4 l-9.52 0 l0 -10.4 l-2.24 0 l0 23.4 l2.24 0 l0 -11 l9.52 0 l0 11 l2.24 0 z M72.44 24 l0 -10.04 c0 -0.2 0.16 -0.36 0.36 -0.36 l4.56 0 c0.2 0 0.36 0.16 0.36 0.36 l0 25.68 c0 0.2 -0.16 0.36 -0.36 0.36 l-4.56 0 c-0.2 0 -0.36 -0.16 -0.36 -0.36 l0 -10.64 l-6.48 0 l0 10.64 c0 0.2 -0.16 0.36 -0.36 0.36 l-4.56 0 c-0.2 0 -0.32 -0.16 -0.32 -0.36 l0 -25.68 c0 -0.2 0.12 -0.36 0.32 -0.36 l4.56 0 c0.2 0 0.36 0.16 0.36 0.36 l0 10.04 l6.48 0 z M88.92 38.52 l0 -23.4 l-2.24 0 l0 23.4 l2.24 0 z M85.52 40 c-0.2 0 -0.32 -0.16 -0.32 -0.36 l0 -25.68 c0 -0.2 0.12 -0.36 0.32 -0.36 l4.56 0 c0.2 0 0.36 0.16 0.36 0.36 l0 25.68 c0 0.2 -0.16 0.36 -0.36 0.36 l-4.56 0 z M112.03999999999999 25.84 l0 -5.04 c0 -1.88 -0.52 -3.36 -1.44 -4.28 c-0.96 -0.96 -2.36 -1.4 -4.2 -1.4 l-7.12 0 l0 23.4 l2.24 0 l0 -7 l4.88 0 c1.72 0 3.2 -0.56 4.2 -1.56 c0.92 -0.96 1.44 -2.4 1.44 -4.12 z M108.07999999999998 18.16 c0.6 0.4 1.04 0.96 1.36 1.64 c0.24 0.6 0.36 1.32 0.36 2.2 l0 2.64 c0 0.92 -0.16 1.68 -0.52 2.32 c-0.28 0.64 -0.8 1.2 -1.44 1.56 c-1.16 0.64 -2.56 0.72 -3.64 0.72 l-2.68 0 l0 -11.8 l2.68 0 c1.72 0 2.92 0.12 3.88 0.72 z M106.39999999999999 13.600000000000001 c4.44 0 7.12 2.52 7.12 7.2 l0 5.04 c0 4.28 -2.64 7.16 -7.12 7.16 l-3.36 0 l0 6.64 c0 0.2 -0.16 0.36 -0.36 0.36 l-4.6 0 c-0.16 0 -0.28 -0.16 -0.28 -0.36 l0 -25.68 c0 -0.2 0.12 -0.36 0.28 -0.36 l8.32 0 z M108.27999999999999 24.64 l0 -2.64 c0 -2.76 -1.28 -3.04 -4.08 -3.04 l-1.16 0 l0 8.8 l1.16 0 c2.2 0 4.08 -0.4 4.08 -3.12 z"/></g>
			</g>
		</svg>
