<svg width="620" height="570.8516380979581" xmlns="http://www.w3.org/2000/svg" version="1.1">
<g fill="#fff" transform="matrix(4.84409 0 0 4.84409 1777.73 116.264)" featureKey="inlineSymbolFeature-0" id="SvgjsG5908">
    <g id="svg_3" xmlns="http://www.w3.org/2000/svg">
        <path id="svg_4" d="m-251.6243,24.54386c-4.9,0 -8.9,3.4 -9.9,8l-14.8,0c-0.6,-9.1 -5.5,-17 -12.5,-21.9l7.6,-13c1,0.3 2.1,0.5 3.2,0.5c5.6,0 10.1,-4.5 10.1,-10.1c0,-5.6 -4.5,-10.1 -10.1,-10.1c-5.6,0 -10.1,4.5 -10.1,10.1c0,3 1.3,5.6 3.3,7.5l-7.6,12.9c-3.9,-1.9 -8.2,-3 -12.9,-3c-4.8,0 -9.4,1.2 -13.4,3.3l-7.6,-12.4c2.6,-1.8 4.3,-4.8 4.3,-8.3c0,-5.6 -4.5,-10.1 -10.1,-10.1c-5.6,0 -10.1,4.5 -10.1,10.1c0,5.6 4.5,10.1 10.1,10.1c0.6,0 1.3,-0.1 1.9,-0.2l8,13c-6.9,5 -11.6,13 -12.1,22.1l-11.4,0.2c-0.6,-5 -4.9,-8.8 -10,-8.8c-5.7,0.1 -10.2,4.6 -10.2,10.2c0,5.6 4.5,10.1 10.1,10.1c4.5,0 8.4,-3 9.7,-7.1l11.9,-0.2c0.8,9 5.8,16.9 13,21.6l-7.2,12.8c-1.1,-0.4 -2.4,-0.7 -3.7,-0.7c-5.6,0 -10.1,4.5 -10.1,10.1c0,5.6 4.5,10.1 10.1,10.1c5.6,0 10.1,-4.5 10.1,-10.1c0,-2.7 -1.1,-5.2 -2.9,-7.1l7.3,-13.1c3.7,1.8 7.9,2.7 12.3,2.7c4.6,0 9,-1.1 12.9,-3l7.5,12.7c-2.2,1.9 -3.6,4.6 -3.6,7.7c0,5.6 4.5,10.1 10.1,10.1s10.1,-4.5 10.1,-10.1c0,-5.6 -4.5,-10.1 -10.1,-10.1c-1,0 -1.9,0.1 -2.8,0.4l-7.6,-12.8c7.1,-4.9 11.9,-12.8 12.5,-21.9l14.8,0c1,4.6 5,8 9.9,8c5.6,0 10.1,-4.5 10.1,-10.1c0,-5.6 -4.5,-10.1 -10.1,-10.1zm-63.2,1.3c0,-0.6 0,-1.4 0.1,-2.2c0,-0.4 0,-0.8 0,-1.2c0,-0.7 0.1,-1.3 0.1,-1.4c0.2,-1.9 0.8,-3.7 2.3,-5.1c0.8,-0.8 1.8,-1.4 2.9,-1.8c0.9,-0.3 1.8,-0.6 2.7,-0.7c0.5,-0.1 0.9,-0.1 1.4,-0.1c2.7,0 5.6,0.7 7.4,2.9c1.5,1.9 2,4.4 2,6.7c0,0.1 0,0.1 0,0.2c0,0 0,1.4 0,1.6c0,0.2 0,0.4 0,0.7c0,0.3 -0.1,0.6 -0.1,0.8c0,0.1 0,0.3 -0.1,0.4c-0.1,0.7 -0.3,1.7 -1.2,2.6c-0.1,0.1 -0.2,0.1 -0.2,0.2l-0.1,0.1c-0.1,0.1 -0.2,0.2 -0.3,0.3c0,0.1 0,0.2 -0.1,0.2c-0.1,0.2 -0.1,0.5 -0.2,0.7c-0.2,0.6 -0.5,1.1 -0.8,1.5c-0.6,1 -1.5,1.9 -2.4,2.5c-2.6,1.8 -5.6,1.8 -8.2,0c-0.9,-0.6 -1.6,-1.4 -2.2,-2.3c-0.6,-0.8 -1,-1.8 -1.3,-2.8c-1,-0.6 -1.6,-1.7 -1.8,-3l0,-0.1c0,0 0,0 0,-0.1c0.1,-0.2 0.1,-0.4 0.1,-0.6zm24.6,25.6l-0.8,0c-0.1,0 -0.2,0 -0.2,0l-28.2,0c0,0 -0.1,0 -0.2,0l-0.8,0c-0.6,0 -1.1,-0.5 -1,-1.1c0,0 0,0 0,-0.1c0.3,-2.4 0.5,-7.3 0.8,-9.7c0,-0.2 0,-0.4 0.1,-0.5c0.1,-0.4 0.2,-0.8 0.3,-1.1c0.1,-0.2 0.2,-0.4 0.4,-0.5c0.2,-0.1 0.4,-0.2 0.7,-0.3c0,0 0,0 0,0c0.9,-0.3 1.8,-0.6 2.7,-0.8c0.8,-0.2 1.6,-0.5 2.4,-0.7c0.6,-0.2 1.3,-0.4 1.8,-0.6c1.3,2.9 3.9,4.9 6.9,5c3.1,-0.2 5.7,-2.2 6.9,-5c0.6,0.2 1.2,0.4 1.8,0.6c0.8,0.2 1.6,0.4 2.4,0.7c0.9,0.3 1.8,0.5 2.7,0.8c0,0 0,0 0,0c0.2,0.1 0.5,0.2 0.7,0.3c0.2,0.2 0.3,0.3 0.4,0.5c0.1,0.3 0.2,0.6 0.3,1.1c0,0.2 0,0.3 0.1,0.5c0.3,2.4 0.5,7.3 0.8,9.7c0,0 0,0 0,0.1c0.1,0.6 -0.4,1.1 -1,1.1z"/>
        <path id="svg_5" d="m-349.7243,19.04386c0,0 0.1,0 0.1,0.1c1,0.4 2.1,0 2.7,-0.9l7.3,-12.6c0.6,-1 0.2,-2.4 -0.8,-3c0,0 0,0 -0.1,0c-1,-0.6 -2.4,-0.3 -3,0.8l-7.3,12.6c-0.7,1.1 -0.2,2.6 1.1,3z"/>
        <path id="svg_6" d="m-259.9243,49.14386c0,0 -0.1,0 0,0c-1.1,-0.7 -2.5,-0.3 -3.1,0.7l-8,13.8c-0.6,1 -0.2,2.4 0.8,3c0,0 0,0 0.1,0c1,0.6 2.4,0.3 3,-0.8l8,-13.8c0.6,-1 0.2,-2.3 -0.8,-2.9z"/>
        <path id="svg_7" d="m-269.9243,2.74386c-0.1,0 -0.1,0 0,0c-1.1,0.6 -1.6,2 -0.9,3l7.9,13.7c0.6,1.1 1.9,1.4 3,0.8c0,0 0,0 0.1,0c1,-0.6 1.4,-1.9 0.8,-3l-7.9,-13.7c-0.7,-1 -2,-1.4 -3,-0.8z"/>
        <path id="svg_8" d="m-340.5243,66.74386c0,-0.1 0,-0.1 0,0c1.1,-0.6 1.5,-2 0.9,-3l-7.3,-12.6c-0.5,-0.9 -1.7,-1.3 -2.7,-0.9c0,0 -0.1,0 -0.1,0.1c-1.2,0.5 -1.8,2 -1.1,3.1l7.3,12.6c0.6,0.9 1.9,1.3 3,0.7z"/>
        <path id="svg_9" d="m-297.3243,78.94386l-16,0c-1.2,0 -2.2,1 -2.2,2.2c0,0 0,0 0,0.1c0,1.2 1,2.2 2.2,2.2l16,0c1.2,0 2.2,-1 2.2,-2.2c0,0 0,0 0,-0.1c0,-1.3 -1,-2.2 -2.2,-2.2z"/>
        <path id="svg_10" d="m-313.3243,-9.65614l16.5,0c1.2,0 2.2,-1 2.2,-2.2c0,0 0,0 0,-0.1c0,-1.2 -1,-2.2 -2.2,-2.2l-16.5,0c-1.2,0 -2.2,1 -2.2,2.2c0,0 0,0 0,0.1c0,1.3 1,2.2 2.2,2.2z"/>
    </g>
</g>
</svg>
